<?xml version="1.0" encoding="utf-8"?>
<!-- Generator: Adobe Illustrator 18.0.0, SVG Export Plug-In . SVG Version: 6.00 Build 0)  -->
<!DOCTYPE svg PUBLIC "-//W3C//DTD SVG 1.1//EN" "http://www.w3.org/Graphics/SVG/1.1/DTD/svg11.dtd">
<svg version="1.1"
	 id="Layer_1" color-rendering="auto" text-rendering="auto" shape-rendering="auto" image-rendering="auto" color-interpolation="auto"
	 xmlns="http://www.w3.org/2000/svg" xmlns:xlink="http://www.w3.org/1999/xlink" x="0px" y="0px" viewBox="0 0 1230 600"
	 enable-background="new 0 0 1230 600" xml:space="preserve">
<g>
	<g transform="translate(70.5,450.5)">
		<g>
			<defs>
				<rect id="SVGID_1_" x="-20.5" y="-70.5" width="1150" height="160"/>
			</defs>
			<clipPath id="SVGID_2_">
				<use xlink:href="#SVGID_1_"  overflow="visible"/>
			</clipPath>
			
				<rect x="-20" y="-70" opacity="0.5" clip-path="url(#SVGID_2_)" fill="#FF5522" enable-background="new    " width="1149" height="159"/>
		</g>
		<g>
			<defs>
				<rect id="SVGID_3_" x="-20.5" y="-70.5" width="1150" height="160"/>
			</defs>
			<clipPath id="SVGID_4_">
				<use xlink:href="#SVGID_3_"  overflow="visible"/>
			</clipPath>
			
				<rect x="-20" y="-70" clip-path="url(#SVGID_4_)" fill="none" stroke="#000000" stroke-linecap="square" stroke-miterlimit="10" width="1149" height="159"/>
		</g>
		<g>
			<defs>
				<rect id="SVGID_5_" x="-20.5" y="-70.5" width="1150" height="160"/>
			</defs>
			<clipPath id="SVGID_6_">
				<use xlink:href="#SVGID_5_"  overflow="visible"/>
			</clipPath>
			<g clip-path="url(#SVGID_6_)" enable-background="new    ">
				<text transform="matrix(1 0 0 1 -13 -53)" font-family="'Helvetica'" font-size="14">Firebase</text>
			</g>
		</g>
	</g>
	<g transform="translate(290,270)">
		<g>
			<defs>
				<rect id="SVGID_7_" x="-20" y="-70" width="580" height="170"/>
			</defs>
			<clipPath id="SVGID_8_">
				<use xlink:href="#SVGID_7_"  overflow="visible"/>
			</clipPath>
			<path clip-path="url(#SVGID_8_)" fill="#FFFFFF" fill-opacity="0" d="M-19.5-59.5h466v-10H559v19h-58.5V99h-520V-59.5"/>
		</g>
		<g>
			<defs>
				<rect id="SVGID_9_" x="-20" y="-70" width="580" height="170"/>
			</defs>
			<clipPath id="SVGID_10_">
				<use xlink:href="#SVGID_9_"  overflow="visible"/>
			</clipPath>
			
				<path clip-path="url(#SVGID_10_)" fill="none" stroke="#FFFFFF" stroke-linecap="square" stroke-miterlimit="10" stroke-opacity="0" d="
				M-19.5-59.5h466v-10H559v19h-58.5V99h-520V-59.5"/>
		</g>
		<g>
			<defs>
				<rect id="SVGID_11_" x="-20" y="-70" width="580" height="170"/>
			</defs>
			<clipPath id="SVGID_12_">
				<use xlink:href="#SVGID_11_"  overflow="visible"/>
			</clipPath>
			<rect x="446.5" y="-69.5" clip-path="url(#SVGID_12_)" fill="#FFFFFF" fill-opacity="0" width="112.5" height="19"/>
		</g>
	</g>
	<g transform="translate(290,270)">
		<g>
			<defs>
				<rect id="SVGID_13_" x="-20" y="-70" width="580" height="170"/>
			</defs>
			<clipPath id="SVGID_14_">
				<use xlink:href="#SVGID_13_"  overflow="visible"/>
			</clipPath>
			
				<rect x="446.5" y="-69.5" clip-path="url(#SVGID_14_)" fill="none" stroke="#000000" stroke-miterlimit="5" stroke-dasharray="8,5" width="112.5" height="19"/>
		</g>
		<g>
			<defs>
				<rect id="SVGID_15_" x="-20" y="-70" width="580" height="170"/>
			</defs>
			<clipPath id="SVGID_16_">
				<use xlink:href="#SVGID_15_"  overflow="visible"/>
			</clipPath>
			<path clip-path="url(#SVGID_16_)" fill="none" stroke="#000000" stroke-miterlimit="5" stroke-dasharray="8,5" d="M446.5-59.5
				h-466V99h520V-50.5"/>
		</g>
		<g>
			<defs>
				<rect id="SVGID_17_" x="-20" y="-70" width="580" height="170"/>
			</defs>
			<clipPath id="SVGID_18_">
				<use xlink:href="#SVGID_17_"  overflow="visible"/>
			</clipPath>
			<g clip-path="url(#SVGID_18_)" enable-background="new    ">
				<text transform="matrix(1 0 0 1 451 -54)" font-family="'Helvetica'" font-size="14">while logged in</text>
			</g>
		</g>
	</g>
	<g transform="translate(130.5,100.5)">
		<g>
			<defs>
				<rect id="SVGID_19_" x="-20.5" y="-70.5" width="460" height="130"/>
			</defs>
			<clipPath id="SVGID_20_">
				<use xlink:href="#SVGID_19_"  overflow="visible"/>
			</clipPath>
			<rect x="-20" y="-70" clip-path="url(#SVGID_20_)" fill="#FFFFFF" fill-opacity="0" width="459" height="129"/>
		</g>
	</g>
	<g transform="translate(130.5,100.5)">
		<g>
			<defs>
				<rect id="SVGID_21_" x="-20.5" y="-70.5" width="460" height="130"/>
			</defs>
			<clipPath id="SVGID_22_">
				<use xlink:href="#SVGID_21_"  overflow="visible"/>
			</clipPath>
			
				<rect x="-20" y="-70" clip-path="url(#SVGID_22_)" fill="none" stroke="#000000" stroke-linecap="square" stroke-miterlimit="10" width="459" height="129"/>
		</g>
	</g>
	<g transform="translate(460,110)">
		<g>
			<defs>
				<rect id="SVGID_23_" x="-20" y="-70" width="120" height="40"/>
			</defs>
			<clipPath id="SVGID_24_">
				<use xlink:href="#SVGID_23_"  overflow="visible"/>
			</clipPath>
			<path clip-path="url(#SVGID_24_)" fill="#00FF00" fill-opacity="0.4902" d="M-11.5-69.5H91c4.4,0,8,3.6,8,8V-39c0,4.4-3.6,8-8,8
				H-11.5c-4.4,0-8-3.6-8-8v-22.5C-19.5-65.9-15.9-69.5-11.5-69.5z"/>
		</g>
	</g>
	<g transform="translate(460,110)">
		<g>
			<defs>
				<rect id="SVGID_25_" x="-20" y="-70" width="120" height="40"/>
			</defs>
			<clipPath id="SVGID_26_">
				<use xlink:href="#SVGID_25_"  overflow="visible"/>
			</clipPath>
			<path clip-path="url(#SVGID_26_)" fill="none" stroke="#000000" stroke-linecap="square" stroke-miterlimit="10" d="M-11.5-69.5
				H91c4.4,0,8,3.6,8,8V-39c0,4.4-3.6,8-8,8H-11.5c-4.4,0-8-3.6-8-8v-22.5C-19.5-65.9-15.9-69.5-11.5-69.5z"/>
		</g>
		<g>
			<defs>
				<rect id="SVGID_27_" x="-20" y="-70" width="120" height="40"/>
			</defs>
			<clipPath id="SVGID_28_">
				<use xlink:href="#SVGID_27_"  overflow="visible"/>
			</clipPath>
			<g clip-path="url(#SVGID_28_)" enable-background="new    ">
				<text transform="matrix(1 0 0 1 -11 -45.0913)" font-family="'Helvetica'" font-size="14">Create account</text>
			</g>
		</g>
	</g>
	<g transform="translate(140,110)">
		<g>
			<defs>
				<rect id="SVGID_29_" x="-20" y="-70" width="120" height="40"/>
			</defs>
			<clipPath id="SVGID_30_">
				<use xlink:href="#SVGID_29_"  overflow="visible"/>
			</clipPath>
			<path clip-path="url(#SVGID_30_)" fill="#00FF00" fill-opacity="0.4902" d="M-11.5-69.5H91c4.4,0,8,3.6,8,8V-39c0,4.4-3.6,8-8,8
				H-11.5c-4.4,0-8-3.6-8-8v-22.5C-19.5-65.9-15.9-69.5-11.5-69.5z"/>
		</g>
	</g>
	<g transform="translate(140,110)">
		<g>
			<defs>
				<rect id="SVGID_31_" x="-20" y="-70" width="120" height="40"/>
			</defs>
			<clipPath id="SVGID_32_">
				<use xlink:href="#SVGID_31_"  overflow="visible"/>
			</clipPath>
			<path clip-path="url(#SVGID_32_)" fill="none" stroke="#000000" stroke-linecap="square" stroke-miterlimit="10" d="M-11.5-69.5
				H91c4.4,0,8,3.6,8,8V-39c0,4.4-3.6,8-8,8H-11.5c-4.4,0-8-3.6-8-8v-22.5C-19.5-65.9-15.9-69.5-11.5-69.5z"/>
		</g>
		<g>
			<defs>
				<rect id="SVGID_33_" x="-20" y="-70" width="120" height="40"/>
			</defs>
			<clipPath id="SVGID_34_">
				<use xlink:href="#SVGID_33_"  overflow="visible"/>
			</clipPath>
			<g clip-path="url(#SVGID_34_)" enable-background="new    ">
				<text transform="matrix(1 0 0 1 3 -45.0913)" font-family="'Helvetica'" font-size="14">User log in</text>
			</g>
		</g>
	</g>
	<g transform="translate(290,110)">
		<g>
			<defs>
				<rect id="SVGID_35_" x="-20" y="-70" width="40" height="40"/>
			</defs>
			<clipPath id="SVGID_36_">
				<use xlink:href="#SVGID_35_"  overflow="visible"/>
			</clipPath>
			<path clip-path="url(#SVGID_36_)" fill="#00FF00" fill-opacity="0.4902" d="M0.5-68.5l18.5,19L0.5-31l-19-18.5L0.5-68.5"/>
		</g>
	</g>
	<g transform="translate(290,110)">
		<g>
			<defs>
				<rect id="SVGID_37_" x="-20" y="-70" width="40" height="40"/>
			</defs>
			<clipPath id="SVGID_38_">
				<use xlink:href="#SVGID_37_"  overflow="visible"/>
			</clipPath>
			<path clip-path="url(#SVGID_38_)" fill="none" stroke="#000000" stroke-linecap="square" stroke-miterlimit="10" d="M0.5-68.5
				l18.5,19L0.5-31l-19-18.5L0.5-68.5"/>
		</g>
	</g>
	<g transform="translate(460,180)">
		<g>
			<defs>
				<rect id="SVGID_39_" x="-20" y="-70" width="120" height="40"/>
			</defs>
			<clipPath id="SVGID_40_">
				<use xlink:href="#SVGID_39_"  overflow="visible"/>
			</clipPath>
			<path clip-path="url(#SVGID_40_)" fill="#00FF00" fill-opacity="0.4902" d="M-11.5-69.5H91c4.4,0,8,3.6,8,8V-39c0,4.4-3.6,8-8,8
				H-11.5c-4.4,0-8-3.6-8-8v-22.5C-19.5-65.9-15.9-69.5-11.5-69.5z"/>
		</g>
	</g>
	<g transform="translate(460,180)">
		<g>
			<defs>
				<rect id="SVGID_41_" x="-20" y="-70" width="120" height="40"/>
			</defs>
			<clipPath id="SVGID_42_">
				<use xlink:href="#SVGID_41_"  overflow="visible"/>
			</clipPath>
			<path clip-path="url(#SVGID_42_)" fill="none" stroke="#000000" stroke-linecap="square" stroke-miterlimit="10" d="M-11.5-69.5
				H91c4.4,0,8,3.6,8,8V-39c0,4.4-3.6,8-8,8H-11.5c-4.4,0-8-3.6-8-8v-22.5C-19.5-65.9-15.9-69.5-11.5-69.5z"/>
		</g>
		<g>
			<defs>
				<rect id="SVGID_43_" x="-20" y="-70" width="120" height="40"/>
			</defs>
			<clipPath id="SVGID_44_">
				<use xlink:href="#SVGID_43_"  overflow="visible"/>
			</clipPath>
			<g clip-path="url(#SVGID_44_)" enable-background="new    ">
				<text transform="matrix(1 0 0 1 6 -45.0913)" font-family="'Helvetica'" font-size="14">Logged in</text>
			</g>
		</g>
	</g>
	<g transform="translate(850,490)">
		<g>
			<defs>
				<rect id="SVGID_45_" x="-20" y="-70" width="160" height="80"/>
			</defs>
			<clipPath id="SVGID_46_">
				<use xlink:href="#SVGID_45_"  overflow="visible"/>
			</clipPath>
			<rect x="-19.5" y="-69.5" clip-path="url(#SVGID_46_)" fill="#0000FF" fill-opacity="0.4902" width="158.5" height="78.5"/>
		</g>
	</g>
	<g transform="translate(850,490)">
		<g>
			<defs>
				<rect id="SVGID_47_" x="-20" y="-70" width="160" height="80"/>
			</defs>
			<clipPath id="SVGID_48_">
				<use xlink:href="#SVGID_47_"  overflow="visible"/>
			</clipPath>
			
				<rect x="-19.5" y="-69.5" clip-path="url(#SVGID_48_)" fill="none" stroke="#000000" stroke-linecap="square" stroke-miterlimit="10" width="158.5" height="78.5"/>
		</g>
		<g>
			<defs>
				<rect id="SVGID_49_" x="-20" y="-70" width="160" height="80"/>
			</defs>
			<clipPath id="SVGID_50_">
				<use xlink:href="#SVGID_49_"  overflow="visible"/>
			</clipPath>
			<g clip-path="url(#SVGID_50_)" enable-background="new    ">
				<text transform="matrix(1 0 0 1 0 -33)" font-family="'Helvetica'" font-size="14">IoT object update</text>
			</g>
		</g>
		<g>
			<defs>
				<rect id="SVGID_51_" x="-20" y="-70" width="160" height="80"/>
			</defs>
			<clipPath id="SVGID_52_">
				<use xlink:href="#SVGID_51_"  overflow="visible"/>
			</clipPath>
			<g clip-path="url(#SVGID_52_)" enable-background="new    ">
				<text transform="matrix(1 0 0 1 5 -17.1826)" font-family="'Helvetica'" font-size="14">info on Firebase</text>
			</g>
		</g>
	</g>
	<g transform="translate(1040,490)">
		<g>
			<defs>
				<rect id="SVGID_53_" x="-20" y="-70" width="160" height="80"/>
			</defs>
			<clipPath id="SVGID_54_">
				<use xlink:href="#SVGID_53_"  overflow="visible"/>
			</clipPath>
			<rect x="-19.5" y="-69.5" clip-path="url(#SVGID_54_)" fill="#FFA500" fill-opacity="0.4902" width="158.5" height="78.5"/>
		</g>
	</g>
	<g transform="translate(1040,490)">
		<g>
			<defs>
				<rect id="SVGID_55_" x="-20" y="-70" width="160" height="80"/>
			</defs>
			<clipPath id="SVGID_56_">
				<use xlink:href="#SVGID_55_"  overflow="visible"/>
			</clipPath>
			
				<rect x="-19.5" y="-69.5" clip-path="url(#SVGID_56_)" fill="none" stroke="#000000" stroke-linecap="square" stroke-miterlimit="10" width="158.5" height="78.5"/>
		</g>
		<g>
			<defs>
				<rect id="SVGID_57_" x="-20" y="-70" width="160" height="80"/>
			</defs>
			<clipPath id="SVGID_58_">
				<use xlink:href="#SVGID_57_"  overflow="visible"/>
			</clipPath>
			<g clip-path="url(#SVGID_58_)" enable-background="new    ">
				<text transform="matrix(1 0 0 1 12 -40.9087)" font-family="'Helvetica'" font-size="14">Firebase push</text>
			</g>
		</g>
		<g>
			<defs>
				<rect id="SVGID_59_" x="-20" y="-70" width="160" height="80"/>
			</defs>
			<clipPath id="SVGID_60_">
				<use xlink:href="#SVGID_59_"  overflow="visible"/>
			</clipPath>
			<g clip-path="url(#SVGID_60_)" enable-background="new    ">
				<text transform="matrix(1 0 0 1 16 -25.0913)" font-family="'Helvetica'" font-size="14">updated info</text>
			</g>
		</g>
		<g>
			<defs>
				<rect id="SVGID_61_" x="-20" y="-70" width="160" height="80"/>
			</defs>
			<clipPath id="SVGID_62_">
				<use xlink:href="#SVGID_61_"  overflow="visible"/>
			</clipPath>
			<g clip-path="url(#SVGID_62_)" enable-background="new    ">
				<text transform="matrix(1 0 0 1 9 -9.2739)" font-family="'Helvetica'" font-size="14">to main screen</text>
			</g>
		</g>
	</g>
	<g transform="translate(550.5,490.5)">
		<g>
			<defs>
				<rect id="SVGID_63_" x="-20.5" y="-70.5" width="180" height="80"/>
			</defs>
			<clipPath id="SVGID_64_">
				<use xlink:href="#SVGID_63_"  overflow="visible"/>
			</clipPath>
			<polygon opacity="0.5" clip-path="url(#SVGID_64_)" fill="#FFA500" enable-background="new    " points="-20,-70 159,-70 159,9 
				-20,9 -8,-30 			"/>
		</g>
		<g>
			<defs>
				<rect id="SVGID_65_" x="-20.5" y="-70.5" width="180" height="80"/>
			</defs>
			<clipPath id="SVGID_66_">
				<use xlink:href="#SVGID_65_"  overflow="visible"/>
			</clipPath>
			<polygon clip-path="url(#SVGID_66_)" fill="none" stroke="#000000" stroke-linecap="square" stroke-miterlimit="10" points="
				-20,-70 159,-70 159,9 -20,9 -8,-30 			"/>
		</g>
		<g>
			<defs>
				<rect id="SVGID_67_" x="-20.5" y="-70.5" width="180" height="80"/>
			</defs>
			<clipPath id="SVGID_68_">
				<use xlink:href="#SVGID_67_"  overflow="visible"/>
			</clipPath>
			<g clip-path="url(#SVGID_68_)" enable-background="new    ">
				<text transform="matrix(1 0 0 1 7 -41)" font-family="'Helvetica'" font-size="14">Send treasure info</text>
			</g>
		</g>
		<g>
			<defs>
				<rect id="SVGID_69_" x="-20.5" y="-70.5" width="180" height="80"/>
			</defs>
			<clipPath id="SVGID_70_">
				<use xlink:href="#SVGID_69_"  overflow="visible"/>
			</clipPath>
			<g clip-path="url(#SVGID_70_)" enable-background="new    ">
				<text transform="matrix(1 0 0 1 14 -24)" font-family="'Helvetica'" font-size="14">from Firebase to</text>
			</g>
		</g>
		<g>
			<defs>
				<rect id="SVGID_71_" x="-20.5" y="-70.5" width="180" height="80"/>
			</defs>
			<clipPath id="SVGID_72_">
				<use xlink:href="#SVGID_71_"  overflow="visible"/>
			</clipPath>
			<g clip-path="url(#SVGID_72_)" enable-background="new    ">
				<text transform="matrix(1 0 0 1 27 -7)" font-family="'Helvetica'" font-size="14">Android app</text>
			</g>
		</g>
	</g>
	<g transform="translate(90.5,490.5)">
		<g>
			<defs>
				<rect id="SVGID_73_" x="-20.5" y="-70.5" width="160" height="80"/>
			</defs>
			<clipPath id="SVGID_74_">
				<use xlink:href="#SVGID_73_"  overflow="visible"/>
			</clipPath>
			
				<rect x="-20" y="-70" opacity="0.5" clip-path="url(#SVGID_74_)" fill="#FF0000" enable-background="new    " width="159" height="79"/>
		</g>
		<g>
			<defs>
				<rect id="SVGID_75_" x="-20.5" y="-70.5" width="160" height="80"/>
			</defs>
			<clipPath id="SVGID_76_">
				<use xlink:href="#SVGID_75_"  overflow="visible"/>
			</clipPath>
			
				<rect x="-20" y="-70" clip-path="url(#SVGID_76_)" fill="none" stroke="#000000" stroke-linecap="square" stroke-miterlimit="10" width="159" height="79"/>
		</g>
		<g>
			<defs>
				<rect id="SVGID_77_" x="-20.5" y="-70.5" width="160" height="80"/>
			</defs>
			<clipPath id="SVGID_78_">
				<use xlink:href="#SVGID_77_"  overflow="visible"/>
			</clipPath>
			<g clip-path="url(#SVGID_78_)" enable-background="new    ">
				<text transform="matrix(1 0 0 1 -8 -41)" font-family="'Helvetica'" font-size="14">Stores treasure info</text>
			</g>
		</g>
		<g>
			<defs>
				<rect id="SVGID_79_" x="-20.5" y="-70.5" width="160" height="80"/>
			</defs>
			<clipPath id="SVGID_80_">
				<use xlink:href="#SVGID_79_"  overflow="visible"/>
			</clipPath>
			<g clip-path="url(#SVGID_80_)" enable-background="new    ">
				<text transform="matrix(1 0 0 1 1 -20)" font-family="'Helvetica'" font-size="14">in Firebase cloud</text>
			</g>
		</g>
		<g>
			<defs>
				<rect id="SVGID_81_" x="-20.5" y="-70.5" width="160" height="80"/>
			</defs>
			<clipPath id="SVGID_82_">
				<use xlink:href="#SVGID_81_"  overflow="visible"/>
			</clipPath>
			<g clip-path="url(#SVGID_82_)" enable-background="new    ">
				<text transform="matrix(1 0 0 1 15 1)" font-family="'Helvetica'" font-size="14">(type, id, QR)</text>
			</g>
		</g>
	</g>
	<g transform="translate(840.5,320.5)">
		<g>
			<defs>
				<rect id="SVGID_83_" x="-20.5" y="-70.5" width="180" height="100"/>
			</defs>
			<clipPath id="SVGID_84_">
				<use xlink:href="#SVGID_83_"  overflow="visible"/>
			</clipPath>
			
				<rect x="-20" y="-70" opacity="0.5" clip-path="url(#SVGID_84_)" fill="#0000FF" enable-background="new    " width="179" height="99"/>
		</g>
		<g>
			<defs>
				<rect id="SVGID_85_" x="-20.5" y="-70.5" width="180" height="100"/>
			</defs>
			<clipPath id="SVGID_86_">
				<use xlink:href="#SVGID_85_"  overflow="visible"/>
			</clipPath>
			
				<rect x="-20" y="-70" clip-path="url(#SVGID_86_)" fill="none" stroke="#000000" stroke-linecap="square" stroke-miterlimit="10" width="179" height="99"/>
		</g>
		<g>
			<defs>
				<rect id="SVGID_87_" x="-20.5" y="-70.5" width="180" height="100"/>
			</defs>
			<clipPath id="SVGID_88_">
				<use xlink:href="#SVGID_87_"  overflow="visible"/>
			</clipPath>
			<g clip-path="url(#SVGID_88_)" enable-background="new    ">
				<text transform="matrix(1 0 0 1 7 -31)" font-family="'Helvetica'" font-size="14">IoT object register</text>
			</g>
		</g>
		<g>
			<defs>
				<rect id="SVGID_89_" x="-20.5" y="-70.5" width="180" height="100"/>
			</defs>
			<clipPath id="SVGID_90_">
				<use xlink:href="#SVGID_89_"  overflow="visible"/>
			</clipPath>
			<g clip-path="url(#SVGID_90_)" enable-background="new    ">
				<text transform="matrix(1 0 0 1 -3 -10)" font-family="'Helvetica'" font-size="14">treasure and user are</text>
			</g>
		</g>
		<g>
			<defs>
				<rect id="SVGID_91_" x="-20.5" y="-70.5" width="180" height="100"/>
			</defs>
			<clipPath id="SVGID_92_">
				<use xlink:href="#SVGID_91_"  overflow="visible"/>
			</clipPath>
			<g clip-path="url(#SVGID_92_)" enable-background="new    ">
				<text transform="matrix(1 0 0 1 20 11)" font-family="'Helvetica'" font-size="14">awarded point</text>
			</g>
		</g>
	</g>
	<g transform="translate(650.5,330.5)">
		<g>
			<defs>
				<rect id="SVGID_93_" x="-20.5" y="-70.5" width="140" height="80"/>
			</defs>
			<clipPath id="SVGID_94_">
				<use xlink:href="#SVGID_93_"  overflow="visible"/>
			</clipPath>
			<path opacity="0.5" clip-path="url(#SVGID_94_)" fill="#FFAFAF" enable-background="new    " d="M-5-70h109c8.3,0,15,6.7,15,15
				v49c0,8.3-6.7,15-15,15H-5c-8.3,0-15-6.7-15-15v-49C-20-63.3-13.3-70-5-70z"/>
		</g>
		<g>
			<defs>
				<rect id="SVGID_95_" x="-20.5" y="-70.5" width="140" height="80"/>
			</defs>
			<clipPath id="SVGID_96_">
				<use xlink:href="#SVGID_95_"  overflow="visible"/>
			</clipPath>
			<path clip-path="url(#SVGID_96_)" fill="none" stroke="#000000" stroke-linecap="square" stroke-miterlimit="10" d="M-5-70h109
				c8.3,0,15,6.7,15,15v49c0,8.3-6.7,15-15,15H-5c-8.3,0-15-6.7-15-15v-49C-20-63.3-13.3-70-5-70z"/>
		</g>
		<g>
			<defs>
				<rect id="SVGID_97_" x="-20.5" y="-70.5" width="140" height="80"/>
			</defs>
			<clipPath id="SVGID_98_">
				<use xlink:href="#SVGID_97_"  overflow="visible"/>
			</clipPath>
			<g clip-path="url(#SVGID_98_)" enable-background="new    ">
				<text transform="matrix(1 0 0 1 11 -41)" font-family="'Helvetica'" font-size="14">User brings</text>
			</g>
		</g>
		<g>
			<defs>
				<rect id="SVGID_99_" x="-20.5" y="-70.5" width="140" height="80"/>
			</defs>
			<clipPath id="SVGID_100_">
				<use xlink:href="#SVGID_99_"  overflow="visible"/>
			</clipPath>
			<g clip-path="url(#SVGID_100_)" enable-background="new    ">
				<text transform="matrix(1 0 0 1 -1 -24)" font-family="'Helvetica'" font-size="14">treasure to IoT</text>
			</g>
		</g>
		<g>
			<defs>
				<rect id="SVGID_101_" x="-20.5" y="-70.5" width="140" height="80"/>
			</defs>
			<clipPath id="SVGID_102_">
				<use xlink:href="#SVGID_101_"  overflow="visible"/>
			</clipPath>
			<g clip-path="url(#SVGID_102_)" enable-background="new    ">
				<text transform="matrix(1 0 0 1 29 -7)" font-family="'Helvetica'" font-size="14">object</text>
			</g>
		</g>
	</g>
	<g transform="translate(480.5,330.5)">
		<g>
			<defs>
				<rect id="SVGID_103_" x="-20.5" y="-70.5" width="140" height="80"/>
			</defs>
			<clipPath id="SVGID_104_">
				<use xlink:href="#SVGID_103_"  overflow="visible"/>
			</clipPath>
			<path opacity="0.5" clip-path="url(#SVGID_104_)" fill="#FFAFAF" enable-background="new    " d="M-5-70h109c8.3,0,15,6.7,15,15
				v49c0,8.3-6.7,15-15,15H-5c-8.3,0-15-6.7-15-15v-49C-20-63.3-13.3-70-5-70z"/>
		</g>
		<g>
			<defs>
				<rect id="SVGID_105_" x="-20.5" y="-70.5" width="140" height="80"/>
			</defs>
			<clipPath id="SVGID_106_">
				<use xlink:href="#SVGID_105_"  overflow="visible"/>
			</clipPath>
			<path clip-path="url(#SVGID_106_)" fill="none" stroke="#000000" stroke-linecap="square" stroke-miterlimit="10" d="M-5-70h109
				c8.3,0,15,6.7,15,15v49c0,8.3-6.7,15-15,15H-5c-8.3,0-15-6.7-15-15v-49C-20-63.3-13.3-70-5-70z"/>
		</g>
		<g>
			<defs>
				<rect id="SVGID_107_" x="-20.5" y="-70.5" width="140" height="80"/>
			</defs>
			<clipPath id="SVGID_108_">
				<use xlink:href="#SVGID_107_"  overflow="visible"/>
			</clipPath>
			<g clip-path="url(#SVGID_108_)" enable-background="new    ">
				<text transform="matrix(1 0 0 1 -7 -41)" font-family="'Helvetica'" font-size="14">User finds active </text>
			</g>
		</g>
		<g>
			<defs>
				<rect id="SVGID_109_" x="-20.5" y="-70.5" width="140" height="80"/>
			</defs>
			<clipPath id="SVGID_110_">
				<use xlink:href="#SVGID_109_"  overflow="visible"/>
			</clipPath>
			<g clip-path="url(#SVGID_110_)" enable-background="new    ">
				<text transform="matrix(1 0 0 1 -2 -24)" font-family="'Helvetica'" font-size="14">QR and scan to</text>
			</g>
		</g>
		<g>
			<defs>
				<rect id="SVGID_111_" x="-20.5" y="-70.5" width="140" height="80"/>
			</defs>
			<clipPath id="SVGID_112_">
				<use xlink:href="#SVGID_111_"  overflow="visible"/>
			</clipPath>
			<g clip-path="url(#SVGID_112_)" enable-background="new    ">
				<text transform="matrix(1 0 0 1 -3 -7)" font-family="'Helvetica'" font-size="14">collect treasure</text>
			</g>
		</g>
	</g>
	<g transform="translate(310.5,330.5)">
		<g>
			<defs>
				<rect id="SVGID_113_" x="-20.5" y="-70.5" width="140" height="80"/>
			</defs>
			<clipPath id="SVGID_114_">
				<use xlink:href="#SVGID_113_"  overflow="visible"/>
			</clipPath>
			<path opacity="0.5" clip-path="url(#SVGID_114_)" fill="#FFAFAF" enable-background="new    " d="M-5-70h109c8.3,0,15,6.7,15,15
				v49c0,8.3-6.7,15-15,15H-5c-8.3,0-15-6.7-15-15v-49C-20-63.3-13.3-70-5-70z"/>
		</g>
		<g>
			<defs>
				<rect id="SVGID_115_" x="-20.5" y="-70.5" width="140" height="80"/>
			</defs>
			<clipPath id="SVGID_116_">
				<use xlink:href="#SVGID_115_"  overflow="visible"/>
			</clipPath>
			<path clip-path="url(#SVGID_116_)" fill="none" stroke="#000000" stroke-linecap="square" stroke-miterlimit="10" d="M-5-70h109
				c8.3,0,15,6.7,15,15v49c0,8.3-6.7,15-15,15H-5c-8.3,0-15-6.7-15-15v-49C-20-63.3-13.3-70-5-70z"/>
		</g>
		<g>
			<defs>
				<rect id="SVGID_117_" x="-20.5" y="-70.5" width="140" height="80"/>
			</defs>
			<clipPath id="SVGID_118_">
				<use xlink:href="#SVGID_117_"  overflow="visible"/>
			</clipPath>
			<g clip-path="url(#SVGID_118_)" enable-background="new    ">
				<text transform="matrix(1 0 0 1 -2 -41)" font-family="'Helvetica'" font-size="14">Users see main</text>
			</g>
		</g>
		<g>
			<defs>
				<rect id="SVGID_119_" x="-20.5" y="-70.5" width="140" height="80"/>
			</defs>
			<clipPath id="SVGID_120_">
				<use xlink:href="#SVGID_119_"  overflow="visible"/>
			</clipPath>
			<g clip-path="url(#SVGID_120_)" enable-background="new    ">
				<text transform="matrix(1 0 0 1 -5 -24)" font-family="'Helvetica'" font-size="14">screen and hunt</text>
			</g>
		</g>
		<g>
			<defs>
				<rect id="SVGID_121_" x="-20.5" y="-70.5" width="140" height="80"/>
			</defs>
			<clipPath id="SVGID_122_">
				<use xlink:href="#SVGID_121_"  overflow="visible"/>
			</clipPath>
			<g clip-path="url(#SVGID_122_)" enable-background="new    ">
				<text transform="matrix(1 0 0 1 10 -7)" font-family="'Helvetica'" font-size="14">for treasure</text>
			</g>
		</g>
	</g>
	<g transform="translate(80.5,320.5)">
		<g>
			<defs>
				<rect id="SVGID_123_" x="-20.5" y="-70.5" width="180" height="100"/>
			</defs>
			<clipPath id="SVGID_124_">
				<use xlink:href="#SVGID_123_"  overflow="visible"/>
			</clipPath>
			
				<rect x="-20" y="-70" opacity="0.5" clip-path="url(#SVGID_124_)" fill="#FF0000" enable-background="new    " width="179" height="99"/>
		</g>
		<g>
			<defs>
				<rect id="SVGID_125_" x="-20.5" y="-70.5" width="180" height="100"/>
			</defs>
			<clipPath id="SVGID_126_">
				<use xlink:href="#SVGID_125_"  overflow="visible"/>
			</clipPath>
			
				<rect x="-20" y="-70" clip-path="url(#SVGID_126_)" fill="none" stroke="#000000" stroke-linecap="square" stroke-miterlimit="10" width="179" height="99"/>
		</g>
		<g>
			<defs>
				<rect id="SVGID_127_" x="-20.5" y="-70.5" width="180" height="100"/>
			</defs>
			<clipPath id="SVGID_128_">
				<use xlink:href="#SVGID_127_"  overflow="visible"/>
			</clipPath>
			<g clip-path="url(#SVGID_128_)" enable-background="new    ">
				<text transform="matrix(1 0 0 1 -4 -45)" font-family="'Helvetica'" font-size="14">Main screen generate</text>
			</g>
		</g>
		<g>
			<defs>
				<rect id="SVGID_129_" x="-20.5" y="-70.5" width="180" height="100"/>
			</defs>
			<clipPath id="SVGID_130_">
				<use xlink:href="#SVGID_129_"  overflow="visible"/>
			</clipPath>
			<g clip-path="url(#SVGID_130_)" enable-background="new    ">
				<text transform="matrix(1 0 0 1 -3 -24)" font-family="'Helvetica'" font-size="14">treasure and connect</text>
			</g>
		</g>
		<g>
			<defs>
				<rect id="SVGID_131_" x="-20.5" y="-70.5" width="180" height="100"/>
			</defs>
			<clipPath id="SVGID_132_">
				<use xlink:href="#SVGID_131_"  overflow="visible"/>
			</clipPath>
			<g clip-path="url(#SVGID_132_)" enable-background="new    ">
				<text transform="matrix(1 0 0 1 -10 -3)" font-family="'Helvetica'" font-size="14">every item to a random</text>
			</g>
		</g>
		<g>
			<defs>
				<rect id="SVGID_133_" x="-20.5" y="-70.5" width="180" height="100"/>
			</defs>
			<clipPath id="SVGID_134_">
				<use xlink:href="#SVGID_133_"  overflow="visible"/>
			</clipPath>
			<g clip-path="url(#SVGID_134_)" enable-background="new    ">
				<text transform="matrix(1 0 0 1 41 18)" font-family="'Helvetica'" font-size="14">QR code</text>
			</g>
		</g>
	</g>
	<g transform="translate(510,140)">
		<g>
			<defs>
				<rect id="SVGID_135_" x="-20" y="-70" width="30" height="60"/>
			</defs>
			<clipPath id="SVGID_136_">
				<use xlink:href="#SVGID_135_"  overflow="visible"/>
			</clipPath>
			<path clip-path="url(#SVGID_136_)" fill="none" stroke="#000000" stroke-linecap="square" stroke-miterlimit="10" d="M-9.5-29.5
				v-30"/>
		</g>
		<g>
			<defs>
				<rect id="SVGID_137_" x="-20" y="-70" width="30" height="60"/>
			</defs>
			<clipPath id="SVGID_138_">
				<use xlink:href="#SVGID_137_"  overflow="visible"/>
			</clipPath>
			<path clip-path="url(#SVGID_138_)" fill="none" stroke="#000000" stroke-linecap="square" stroke-miterlimit="10" d="M-3-40.8
				l-6.5,11.3L-16-40.8"/>
		</g>
	</g>
	<g transform="translate(250,120)">
		<g>
			<defs>
				<rect id="SVGID_139_" x="-20" y="-70" width="60" height="30"/>
			</defs>
			<clipPath id="SVGID_140_">
				<use xlink:href="#SVGID_139_"  overflow="visible"/>
			</clipPath>
			<path clip-path="url(#SVGID_140_)" fill="none" stroke="#000000" stroke-linecap="square" stroke-miterlimit="10" d="M20.5-59.5
				h-30"/>
		</g>
		<g>
			<defs>
				<rect id="SVGID_141_" x="-20" y="-70" width="60" height="30"/>
			</defs>
			<clipPath id="SVGID_142_">
				<use xlink:href="#SVGID_141_"  overflow="visible"/>
			</clipPath>
			<path clip-path="url(#SVGID_142_)" fill="none" stroke="#000000" stroke-linecap="square" stroke-miterlimit="10" d="M9.2-66
				l11.3,6.5L9.2-53"/>
		</g>
	</g>
	<g transform="translate(300,140)">
		<g>
			<defs>
				<rect id="SVGID_143_" x="-20" y="-70" width="180" height="80"/>
			</defs>
			<clipPath id="SVGID_144_">
				<use xlink:href="#SVGID_143_"  overflow="visible"/>
			</clipPath>
			<path clip-path="url(#SVGID_144_)" fill="none" stroke="#000000" stroke-linecap="square" stroke-miterlimit="10" d="M140.5-9.5
				h-150"/>
		</g>
		<g>
			<defs>
				<rect id="SVGID_145_" x="-20" y="-70" width="180" height="80"/>
			</defs>
			<clipPath id="SVGID_146_">
				<use xlink:href="#SVGID_145_"  overflow="visible"/>
			</clipPath>
			<path clip-path="url(#SVGID_146_)" fill="none" stroke="#000000" stroke-linecap="square" stroke-miterlimit="10" d="M-9.5-9.5
				v-50"/>
		</g>
		<g>
			<defs>
				<rect id="SVGID_147_" x="-20" y="-70" width="180" height="80"/>
			</defs>
			<clipPath id="SVGID_148_">
				<use xlink:href="#SVGID_147_"  overflow="visible"/>
			</clipPath>
			<path clip-path="url(#SVGID_148_)" fill="none" stroke="#000000" stroke-linecap="square" stroke-miterlimit="10" d="M129.2-16
				l11.3,6.5L129.2-3"/>
		</g>
		<g>
			<defs>
				<rect id="SVGID_149_" x="-20" y="-70" width="180" height="80"/>
			</defs>
			<clipPath id="SVGID_150_">
				<use xlink:href="#SVGID_149_"  overflow="visible"/>
			</clipPath>
			<g clip-path="url(#SVGID_150_)" enable-background="new    ">
				<text transform="matrix(1 0 0 1 4.2661 -14)" font-family="'Helvetica'" font-size="14">[user has account]</text>
			</g>
		</g>
	</g>
	<g transform="translate(320,110)">
		<g>
			<defs>
				<rect id="SVGID_151_" x="-20" y="-70" width="160" height="40"/>
			</defs>
			<clipPath id="SVGID_152_">
				<use xlink:href="#SVGID_151_"  overflow="visible"/>
			</clipPath>
			<path clip-path="url(#SVGID_152_)" fill="none" stroke="#000000" stroke-linecap="square" stroke-miterlimit="10" d="M120.5-49.5
				h-130"/>
		</g>
		<g>
			<defs>
				<rect id="SVGID_153_" x="-20" y="-70" width="160" height="40"/>
			</defs>
			<clipPath id="SVGID_154_">
				<use xlink:href="#SVGID_153_"  overflow="visible"/>
			</clipPath>
			<path clip-path="url(#SVGID_154_)" fill="none" stroke="#000000" stroke-linecap="square" stroke-miterlimit="10" d="M109.2-56
				l11.3,6.5L109.2-43"/>
		</g>
		<g>
			<defs>
				<rect id="SVGID_155_" x="-20" y="-70" width="160" height="40"/>
			</defs>
			<clipPath id="SVGID_156_">
				<use xlink:href="#SVGID_155_"  overflow="visible"/>
			</clipPath>
			<g clip-path="url(#SVGID_156_)" enable-background="new    ">
				<text transform="matrix(1 0 0 1 0.2988 -54)" font-family="'Helvetica'" font-size="14">[has no account]</text>
			</g>
		</g>
	</g>
	<g transform="translate(30,360)">
		<g>
			<defs>
				<rect id="SVGID_157_" x="-20" y="-70" width="1110" height="300"/>
			</defs>
			<clipPath id="SVGID_158_">
				<use xlink:href="#SVGID_157_"  overflow="visible"/>
			</clipPath>
			<path clip-path="url(#SVGID_158_)" fill="none" stroke="#000000" stroke-linecap="square" stroke-miterlimit="10" d="M30.5-59.5
				h-40"/>
		</g>
		<g>
			<defs>
				<rect id="SVGID_159_" x="-20" y="-70" width="1110" height="300"/>
			</defs>
			<clipPath id="SVGID_160_">
				<use xlink:href="#SVGID_159_"  overflow="visible"/>
			</clipPath>
			<path clip-path="url(#SVGID_160_)" fill="none" stroke="#000000" stroke-linecap="square" stroke-miterlimit="10" d="M-9.5-59.5
				v270"/>
		</g>
		<g>
			<defs>
				<rect id="SVGID_161_" x="-20" y="-70" width="1110" height="300"/>
			</defs>
			<clipPath id="SVGID_162_">
				<use xlink:href="#SVGID_161_"  overflow="visible"/>
			</clipPath>
			<path clip-path="url(#SVGID_162_)" fill="none" stroke="#000000" stroke-linecap="square" stroke-miterlimit="10" d="M-9.5,210.5
				h1080"/>
		</g>
		<g>
			<defs>
				<rect id="SVGID_163_" x="-20" y="-70" width="1110" height="300"/>
			</defs>
			<clipPath id="SVGID_164_">
				<use xlink:href="#SVGID_163_"  overflow="visible"/>
			</clipPath>
			<path clip-path="url(#SVGID_164_)" fill="none" stroke="#000000" stroke-linecap="square" stroke-miterlimit="10" d="
				M1070.5,210.5v-70"/>
		</g>
		<g>
			<defs>
				<rect id="SVGID_165_" x="-20" y="-70" width="1110" height="300"/>
			</defs>
			<clipPath id="SVGID_166_">
				<use xlink:href="#SVGID_165_"  overflow="visible"/>
			</clipPath>
			<path clip-path="url(#SVGID_166_)" fill="none" stroke="#000000" stroke-linecap="square" stroke-miterlimit="10" d="M19.2-66
				l11.3,6.5L19.2-53"/>
		</g>
	</g>
	<g transform="translate(1000,520)">
		<g>
			<defs>
				<rect id="SVGID_167_" x="-20" y="-70" width="60" height="30"/>
			</defs>
			<clipPath id="SVGID_168_">
				<use xlink:href="#SVGID_167_"  overflow="visible"/>
			</clipPath>
			<path clip-path="url(#SVGID_168_)" fill="none" stroke="#000000" stroke-linecap="square" stroke-miterlimit="10" d="M20.5-59.5
				h-30"/>
		</g>
		<g>
			<defs>
				<rect id="SVGID_169_" x="-20" y="-70" width="60" height="30"/>
			</defs>
			<clipPath id="SVGID_170_">
				<use xlink:href="#SVGID_169_"  overflow="visible"/>
			</clipPath>
			<path clip-path="url(#SVGID_170_)" fill="none" stroke="#000000" stroke-linecap="square" stroke-miterlimit="10" d="M9.2-66
				l11.3,6.5L9.2-53"/>
		</g>
	</g>
	<g transform="translate(900.5,390.5)">
		<g>
			<defs>
				<rect id="SVGID_171_" x="-20.5" y="-70.5" width="50" height="120"/>
			</defs>
			<clipPath id="SVGID_172_">
				<use xlink:href="#SVGID_171_"  overflow="visible"/>
			</clipPath>
			
				<line clip-path="url(#SVGID_172_)" fill="none" stroke="#000000" stroke-linecap="square" stroke-miterlimit="10" x1="10" y1="30" x2="10" y2="-5"/>
		</g>
		<g>
			<defs>
				<rect id="SVGID_173_" x="-20.5" y="-70.5" width="50" height="120"/>
			</defs>
			<clipPath id="SVGID_174_">
				<use xlink:href="#SVGID_173_"  overflow="visible"/>
			</clipPath>
			
				<line clip-path="url(#SVGID_174_)" fill="none" stroke="#000000" stroke-linecap="square" stroke-miterlimit="10" x1="10" y1="-5" x2="10" y2="-40"/>
		</g>
		<g>
			<defs>
				<rect id="SVGID_175_" x="-20.5" y="-70.5" width="50" height="120"/>
			</defs>
			<clipPath id="SVGID_176_">
				<use xlink:href="#SVGID_175_"  overflow="visible"/>
			</clipPath>
			
				<line clip-path="url(#SVGID_176_)" fill="none" stroke="#000000" stroke-linecap="square" stroke-miterlimit="10" x1="10" y1="29" x2="4" y2="17"/>
		</g>
		<g>
			<defs>
				<rect id="SVGID_177_" x="-20.5" y="-70.5" width="50" height="120"/>
			</defs>
			<clipPath id="SVGID_178_">
				<use xlink:href="#SVGID_177_"  overflow="visible"/>
			</clipPath>
			
				<line clip-path="url(#SVGID_178_)" fill="none" stroke="#000000" stroke-linecap="square" stroke-miterlimit="10" x1="10" y1="29" x2="16" y2="17"/>
		</g>
	</g>
	<g transform="translate(160,410)">
		<g>
			<defs>
				<rect id="SVGID_179_" x="-20" y="-70" width="30" height="100"/>
			</defs>
			<clipPath id="SVGID_180_">
				<use xlink:href="#SVGID_179_"  overflow="visible"/>
			</clipPath>
			<path clip-path="url(#SVGID_180_)" fill="none" stroke="#000000" stroke-linecap="square" stroke-miterlimit="10" d="M-9.5,10.5
				v-70"/>
		</g>
		<g>
			<defs>
				<rect id="SVGID_181_" x="-20" y="-70" width="30" height="100"/>
			</defs>
			<clipPath id="SVGID_182_">
				<use xlink:href="#SVGID_181_"  overflow="visible"/>
			</clipPath>
			<path clip-path="url(#SVGID_182_)" fill="none" stroke="#000000" stroke-linecap="square" stroke-miterlimit="10" d="M-3-0.8
				l-6.5,11.3L-16-0.8"/>
		</g>
	</g>
	<g transform="translate(560.5,380.5)">
		<g>
			<defs>
				<rect id="SVGID_183_" x="-20.5" y="-70.5" width="110" height="130"/>
			</defs>
			<clipPath id="SVGID_184_">
				<use xlink:href="#SVGID_183_"  overflow="visible"/>
			</clipPath>
			
				<line clip-path="url(#SVGID_184_)" fill="none" stroke="#000000" stroke-linecap="square" stroke-miterlimit="10" x1="10" y1="-40" x2="40" y2="0"/>
		</g>
		<g>
			<defs>
				<rect id="SVGID_185_" x="-20.5" y="-70.5" width="110" height="130"/>
			</defs>
			<clipPath id="SVGID_186_">
				<use xlink:href="#SVGID_185_"  overflow="visible"/>
			</clipPath>
			
				<line clip-path="url(#SVGID_186_)" fill="none" stroke="#000000" stroke-linecap="square" stroke-miterlimit="10" x1="40" y1="0" x2="70" y2="40"/>
		</g>
		<g>
			<defs>
				<rect id="SVGID_187_" x="-20.5" y="-70.5" width="110" height="130"/>
			</defs>
			<clipPath id="SVGID_188_">
				<use xlink:href="#SVGID_187_"  overflow="visible"/>
			</clipPath>
			
				<line clip-path="url(#SVGID_188_)" fill="none" stroke="#000000" stroke-linecap="square" stroke-miterlimit="10" x1="10" y1="-40" x2="22" y2="-34"/>
		</g>
		<g>
			<defs>
				<rect id="SVGID_189_" x="-20.5" y="-70.5" width="110" height="130"/>
			</defs>
			<clipPath id="SVGID_190_">
				<use xlink:href="#SVGID_189_"  overflow="visible"/>
			</clipPath>
			
				<line clip-path="url(#SVGID_190_)" fill="none" stroke="#000000" stroke-linecap="square" stroke-miterlimit="10" x1="10" y1="-40" x2="12" y2="-27"/>
		</g>
	</g>
	<g transform="translate(420.5,380.5)">
		<g>
			<defs>
				<rect id="SVGID_191_" x="-20.5" y="-70.5" width="110" height="130"/>
			</defs>
			<clipPath id="SVGID_192_">
				<use xlink:href="#SVGID_191_"  overflow="visible"/>
			</clipPath>
			
				<line clip-path="url(#SVGID_192_)" fill="none" stroke="#000000" stroke-linecap="square" stroke-miterlimit="10" x1="10" y1="40" x2="40" y2="0"/>
		</g>
		<g>
			<defs>
				<rect id="SVGID_193_" x="-20.5" y="-70.5" width="110" height="130"/>
			</defs>
			<clipPath id="SVGID_194_">
				<use xlink:href="#SVGID_193_"  overflow="visible"/>
			</clipPath>
			
				<line clip-path="url(#SVGID_194_)" fill="none" stroke="#000000" stroke-linecap="square" stroke-miterlimit="10" x1="40" y1="0" x2="70" y2="-40"/>
		</g>
		<g>
			<defs>
				<rect id="SVGID_195_" x="-20.5" y="-70.5" width="110" height="130"/>
			</defs>
			<clipPath id="SVGID_196_">
				<use xlink:href="#SVGID_195_"  overflow="visible"/>
			</clipPath>
			
				<line clip-path="url(#SVGID_196_)" fill="none" stroke="#000000" stroke-linecap="square" stroke-miterlimit="10" x1="10" y1="39" x2="12" y2="26"/>
		</g>
		<g>
			<defs>
				<rect id="SVGID_197_" x="-20.5" y="-70.5" width="110" height="130"/>
			</defs>
			<clipPath id="SVGID_198_">
				<use xlink:href="#SVGID_197_"  overflow="visible"/>
			</clipPath>
			
				<line clip-path="url(#SVGID_198_)" fill="none" stroke="#000000" stroke-linecap="square" stroke-miterlimit="10" x1="10" y1="39" x2="22" y2="33"/>
		</g>
	</g>
	<g transform="translate(370.5,490.5)">
		<g>
			<defs>
				<rect id="SVGID_199_" x="-20.5" y="-70.5" width="180" height="80"/>
			</defs>
			<clipPath id="SVGID_200_">
				<use xlink:href="#SVGID_199_"  overflow="visible"/>
			</clipPath>
			<polygon opacity="0.5" clip-path="url(#SVGID_200_)" fill="#00FF00" enable-background="new    " points="-20,-70 146,-70 
				159,-30 146,9 -20,9 			"/>
		</g>
		<g>
			<defs>
				<rect id="SVGID_201_" x="-20.5" y="-70.5" width="180" height="80"/>
			</defs>
			<clipPath id="SVGID_202_">
				<use xlink:href="#SVGID_201_"  overflow="visible"/>
			</clipPath>
			<polygon clip-path="url(#SVGID_202_)" fill="none" stroke="#000000" stroke-linecap="square" stroke-miterlimit="10" points="
				-20,-70 146,-70 159,-30 146,9 -20,9 			"/>
		</g>
		<g>
			<defs>
				<rect id="SVGID_203_" x="-20.5" y="-70.5" width="180" height="80"/>
			</defs>
			<clipPath id="SVGID_204_">
				<use xlink:href="#SVGID_203_"  overflow="visible"/>
			</clipPath>
			<g clip-path="url(#SVGID_204_)" enable-background="new    ">
				<text transform="matrix(1 0 0 1 22 -41)" font-family="'Helvetica'" font-size="14">Requests data</text>
			</g>
		</g>
		<g>
			<defs>
				<rect id="SVGID_205_" x="-20.5" y="-70.5" width="180" height="80"/>
			</defs>
			<clipPath id="SVGID_206_">
				<use xlink:href="#SVGID_205_"  overflow="visible"/>
			</clipPath>
			<g clip-path="url(#SVGID_206_)" enable-background="new    ">
				<text transform="matrix(1 0 0 1 11 -24)" font-family="'Helvetica'" font-size="14">about current QR</text>
			</g>
		</g>
		<g>
			<defs>
				<rect id="SVGID_207_" x="-20.5" y="-70.5" width="180" height="80"/>
			</defs>
			<clipPath id="SVGID_208_">
				<use xlink:href="#SVGID_207_"  overflow="visible"/>
			</clipPath>
			<g clip-path="url(#SVGID_208_)" enable-background="new    ">
				<text transform="matrix(1 0 0 1 4 -7)" font-family="'Helvetica'" font-size="14">code from Firebase</text>
			</g>
		</g>
	</g>
	<g transform="translate(760.5,340.5)">
		<g>
			<defs>
				<rect id="SVGID_209_" x="-20.5" y="-70.5" width="100" height="50"/>
			</defs>
			<clipPath id="SVGID_210_">
				<use xlink:href="#SVGID_209_"  overflow="visible"/>
			</clipPath>
			
				<line clip-path="url(#SVGID_210_)" fill="none" stroke="#000000" stroke-linecap="square" stroke-miterlimit="10" x1="60" y1="-40" x2="35" y2="-40"/>
		</g>
		<g>
			<defs>
				<rect id="SVGID_211_" x="-20.5" y="-70.5" width="100" height="50"/>
			</defs>
			<clipPath id="SVGID_212_">
				<use xlink:href="#SVGID_211_"  overflow="visible"/>
			</clipPath>
			
				<line clip-path="url(#SVGID_212_)" fill="none" stroke="#000000" stroke-linecap="square" stroke-miterlimit="10" x1="35" y1="-40" x2="10" y2="-40"/>
		</g>
		<g>
			<defs>
				<rect id="SVGID_213_" x="-20.5" y="-70.5" width="100" height="50"/>
			</defs>
			<clipPath id="SVGID_214_">
				<use xlink:href="#SVGID_213_"  overflow="visible"/>
			</clipPath>
			
				<line clip-path="url(#SVGID_214_)" fill="none" stroke="#000000" stroke-linecap="square" stroke-miterlimit="10" x1="59" y1="-40" x2="47" y2="-34"/>
		</g>
		<g>
			<defs>
				<rect id="SVGID_215_" x="-20.5" y="-70.5" width="100" height="50"/>
			</defs>
			<clipPath id="SVGID_216_">
				<use xlink:href="#SVGID_215_"  overflow="visible"/>
			</clipPath>
			
				<line clip-path="url(#SVGID_216_)" fill="none" stroke="#000000" stroke-linecap="square" stroke-miterlimit="10" x1="59" y1="-40" x2="47" y2="-46"/>
		</g>
	</g>
	<g transform="translate(420.5,340.5)">
		<g>
			<defs>
				<rect id="SVGID_217_" x="-20.5" y="-70.5" width="80" height="50"/>
			</defs>
			<clipPath id="SVGID_218_">
				<use xlink:href="#SVGID_217_"  overflow="visible"/>
			</clipPath>
			
				<line clip-path="url(#SVGID_218_)" fill="none" stroke="#000000" stroke-linecap="square" stroke-miterlimit="10" x1="40" y1="-40" x2="25" y2="-40"/>
		</g>
		<g>
			<defs>
				<rect id="SVGID_219_" x="-20.5" y="-70.5" width="80" height="50"/>
			</defs>
			<clipPath id="SVGID_220_">
				<use xlink:href="#SVGID_219_"  overflow="visible"/>
			</clipPath>
			
				<line clip-path="url(#SVGID_220_)" fill="none" stroke="#000000" stroke-linecap="square" stroke-miterlimit="10" x1="25" y1="-40" x2="10" y2="-40"/>
		</g>
		<g>
			<defs>
				<rect id="SVGID_221_" x="-20.5" y="-70.5" width="80" height="50"/>
			</defs>
			<clipPath id="SVGID_222_">
				<use xlink:href="#SVGID_221_"  overflow="visible"/>
			</clipPath>
			
				<line clip-path="url(#SVGID_222_)" fill="none" stroke="#000000" stroke-linecap="square" stroke-miterlimit="10" x1="39" y1="-40" x2="27" y2="-34"/>
		</g>
		<g>
			<defs>
				<rect id="SVGID_223_" x="-20.5" y="-70.5" width="80" height="50"/>
			</defs>
			<clipPath id="SVGID_224_">
				<use xlink:href="#SVGID_223_"  overflow="visible"/>
			</clipPath>
			
				<line clip-path="url(#SVGID_224_)" fill="none" stroke="#000000" stroke-linecap="square" stroke-miterlimit="10" x1="39" y1="-40" x2="27" y2="-46"/>
		</g>
	</g>
	<g transform="translate(590.5,340.5)">
		<g>
			<defs>
				<rect id="SVGID_225_" x="-20.5" y="-70.5" width="80" height="50"/>
			</defs>
			<clipPath id="SVGID_226_">
				<use xlink:href="#SVGID_225_"  overflow="visible"/>
			</clipPath>
			
				<line clip-path="url(#SVGID_226_)" fill="none" stroke="#000000" stroke-linecap="square" stroke-miterlimit="10" x1="40" y1="-40" x2="25" y2="-40"/>
		</g>
		<g>
			<defs>
				<rect id="SVGID_227_" x="-20.5" y="-70.5" width="80" height="50"/>
			</defs>
			<clipPath id="SVGID_228_">
				<use xlink:href="#SVGID_227_"  overflow="visible"/>
			</clipPath>
			
				<line clip-path="url(#SVGID_228_)" fill="none" stroke="#000000" stroke-linecap="square" stroke-miterlimit="10" x1="25" y1="-40" x2="10" y2="-40"/>
		</g>
		<g>
			<defs>
				<rect id="SVGID_229_" x="-20.5" y="-70.5" width="80" height="50"/>
			</defs>
			<clipPath id="SVGID_230_">
				<use xlink:href="#SVGID_229_"  overflow="visible"/>
			</clipPath>
			
				<line clip-path="url(#SVGID_230_)" fill="none" stroke="#000000" stroke-linecap="square" stroke-miterlimit="10" x1="39" y1="-40" x2="27" y2="-34"/>
		</g>
		<g>
			<defs>
				<rect id="SVGID_231_" x="-20.5" y="-70.5" width="80" height="50"/>
			</defs>
			<clipPath id="SVGID_232_">
				<use xlink:href="#SVGID_231_"  overflow="visible"/>
			</clipPath>
			
				<line clip-path="url(#SVGID_232_)" fill="none" stroke="#000000" stroke-linecap="square" stroke-miterlimit="10" x1="39" y1="-40" x2="27" y2="-46"/>
		</g>
	</g>
	<g transform="translate(350.5,270.5)">
		<g>
			<defs>
				<rect id="SVGID_233_" x="-20.5" y="-70.5" width="220" height="80"/>
			</defs>
			<clipPath id="SVGID_234_">
				<use xlink:href="#SVGID_233_"  overflow="visible"/>
			</clipPath>
			
				<line clip-path="url(#SVGID_234_)" fill="none" stroke="#000000" stroke-linecap="square" stroke-miterlimit="10" x1="10" y1="-10" x2="10" y2="-40"/>
		</g>
		<g>
			<defs>
				<rect id="SVGID_235_" x="-20.5" y="-70.5" width="220" height="80"/>
			</defs>
			<clipPath id="SVGID_236_">
				<use xlink:href="#SVGID_235_"  overflow="visible"/>
			</clipPath>
			
				<line clip-path="url(#SVGID_236_)" fill="none" stroke="#000000" stroke-linecap="square" stroke-miterlimit="10" x1="10" y1="-40" x2="95" y2="-40"/>
		</g>
		<g>
			<defs>
				<rect id="SVGID_237_" x="-20.5" y="-70.5" width="220" height="80"/>
			</defs>
			<clipPath id="SVGID_238_">
				<use xlink:href="#SVGID_237_"  overflow="visible"/>
			</clipPath>
			
				<line clip-path="url(#SVGID_238_)" fill="none" stroke="#000000" stroke-linecap="square" stroke-miterlimit="10" x1="95" y1="-40" x2="180" y2="-40"/>
		</g>
		<g>
			<defs>
				<rect id="SVGID_239_" x="-20.5" y="-70.5" width="220" height="80"/>
			</defs>
			<clipPath id="SVGID_240_">
				<use xlink:href="#SVGID_239_"  overflow="visible"/>
			</clipPath>
			
				<line clip-path="url(#SVGID_240_)" fill="none" stroke="#000000" stroke-linecap="square" stroke-miterlimit="10" x1="180" y1="-40" x2="180" y2="-10"/>
		</g>
		<g>
			<defs>
				<rect id="SVGID_241_" x="-20.5" y="-70.5" width="220" height="80"/>
			</defs>
			<clipPath id="SVGID_242_">
				<use xlink:href="#SVGID_241_"  overflow="visible"/>
			</clipPath>
			
				<line clip-path="url(#SVGID_242_)" fill="none" stroke="#000000" stroke-linecap="square" stroke-miterlimit="10" x1="10" y1="-11" x2="4" y2="-23"/>
		</g>
		<g>
			<defs>
				<rect id="SVGID_243_" x="-20.5" y="-70.5" width="220" height="80"/>
			</defs>
			<clipPath id="SVGID_244_">
				<use xlink:href="#SVGID_243_"  overflow="visible"/>
			</clipPath>
			
				<line clip-path="url(#SVGID_244_)" fill="none" stroke="#000000" stroke-linecap="square" stroke-miterlimit="10" x1="10" y1="-11" x2="16" y2="-23"/>
		</g>
	</g>
</g>
</svg>
