<svg
	version="1.1"
	xmlns="http://www.w3.org/2000/svg"
	xmlns:xlink="http://www.w3.org/1999/xlink"
	x="0px" y="0px"
	viewBox="0 0 400 460"
	enable-background="new 0 0 400 460"
	xml:space="preserve">

	<g id="frame">
		<path fill="none" stroke="#272428" stroke-width="12" stroke-miterlimit="10" d="M382,394H18c-6.6,0-12-5.4-12-12V18 c0-6.6,5.4-12,12-12h364c6.6,0,12,5.4,12,12v364C394,388.6,388.6,394,382,394z"/>
	</g>

	<g id="text-myheart" fill="#272428">
		<path d="M69.4,59.4L70,47.2h-0.8l-14,20.6h-3L37.6,47.2H37l0.8,11v43.2H21.5V22.6h17.4l15,21.8h0.5l14.9-21.8h17.2v78.8H69.4V59.4z"/>
		<path d="M118.8,72.3L90.5,22.6h20.4l16.9,32.5h0.6l17.2-32.5H164l-28.1,49.6v29.1h-17.1V72.3z"/>
		<path d="M68.1,159.4H39.9v33H22.8v-78.8h17.1v32.1h28.2v-32.1h17.1v78.8H68.1V159.4z"/>
		<path d="M98.2,113.6h57.4v13.7h-40.2v18.3h37.1v13.7h-37.1v19.2h40.9v13.7h-58V113.6z"/>
		<path d="M211.5,174.9h-26.1l-6,17.4h-17.1l28.2-78.8h17.1l28.1,78.8h-18L211.5,174.9z M189.4,162.5h18.8l-8.9-26.3h-1.1 L189.4,162.5z"/>
		<path d="M241.6,114.3c1.9-0.3,4-0.6,6.2-0.8c2.2-0.3,4.4-0.5,6.6-0.6c2.2-0.1,4.4-0.3,6.4-0.3c2.1-0.1,4-0.1,5.8-0.1
			c4.1,0,8.1,0.4,12.1,1.1c4,0.7,7.5,1.9,10.6,3.7c3.1,1.7,5.6,4.1,7.5,7c1.9,2.9,2.8,6.6,2.8,10.9c0,3.2-0.4,6-1.1,8.4
			c-0.7,2.4-1.7,4.4-2.9,6.2s-2.8,3.4-4.6,4.7c-1.8,1.3-3.7,2.5-5.8,3.5l21.1,34.4h-19.8L269,161.5h-10.2v30.8h-17.1V114.3z
			 M267.9,126.2c-1.8,0-3.5,0-5.2,0.1c-1.7,0.1-3,0.2-3.9,0.4v22.8h6.8c4.8,0,8.6-1,11.6-2.9c3-1.9,4.5-5.2,4.5-9.7
			c0-3.4-1.2-6-3.5-7.9C275.8,127.1,272.4,126.2,267.9,126.2z"/>
		<path d="M322.2,179.9h14.2v-54h-12v13.6h-13.8v-26h68.5v26h-13.8v-13.6h-11.9v54h14.1v12.4h-45.5V179.9z"/>
		<path d="M82.1,223.9c0,2-0.3,3.9-0.8,5.8c-0.5,2-1.4,3.7-2.7,5.3c-1.2,1.6-2.9,3-4.9,4.3s-4.4,2.2-7.2,2.8v0.7
			c2.5,0.4,4.9,1,7.1,1.9c2.2,0.9,4.2,2.1,5.9,3.7c1.7,1.6,3,3.5,3.9,5.7c1,2.2,1.4,4.9,1.4,8c0,4.1-1,7.6-2.9,10.5
			c-1.9,3-4.5,5.4-7.7,7.3c-3.2,1.9-6.9,3.3-10.9,4.2c-4.1,0.9-8.3,1.4-12.6,1.4c-1.4,0-3.2,0-5.4,0c-2.2,0-4.6-0.1-7.1-0.2
			c-2.5-0.1-5.1-0.3-7.8-0.5s-5-0.6-7.2-1v-77.6c1.6-0.2,3.4-0.4,5.4-0.7c2-0.2,4.2-0.4,6.6-0.6c2.3-0.1,4.7-0.3,7.2-0.3
			c2.5-0.1,4.9-0.1,7.3-0.1c4.1,0,8.1,0.3,11.9,0.8s7.3,1.6,10.4,3c3,1.4,5.5,3.4,7.3,6C81.1,216.8,82.1,220,82.1,223.9z M45,238.6
			c1.2,0,2.6,0,4.1-0.1c1.6-0.1,2.9-0.2,3.9-0.3c3.2-0.9,6-2.2,8.4-4c2.3-1.8,3.5-4.1,3.5-7c0-1.9-0.4-3.5-1.3-4.8
			c-0.9-1.3-2-2.3-3.4-3c-1.4-0.7-3-1.3-4.8-1.6s-3.7-0.4-5.6-0.4c-2.2,0-4.2,0-6.1,0.1c-1.9,0.1-3.3,0.2-4.3,0.3v20.8H45z
			 M50.6,272.5c2.1,0,4.1-0.2,6.1-0.7c2-0.4,3.7-1.1,5.2-2.1s2.7-2.1,3.6-3.5c0.9-1.4,1.4-3.1,1.4-5c0-2.5-0.5-4.4-1.6-5.8
			c-1.1-1.4-2.5-2.5-4.2-3.3s-3.7-1.3-5.9-1.5c-2.2-0.2-4.3-0.3-6.5-0.3h-9.1v21.5c0.4,0.1,1.1,0.3,2,0.3c0.9,0.1,1.9,0.1,2.9,0.2
			c1,0,2.1,0.1,3.2,0.1C48.8,272.5,49.7,272.5,50.6,272.5z"/>
		<path d="M142.2,204.9h16.2v50.4c0,5.1-0.8,9.5-2.2,13.2s-3.6,6.8-6.3,9.2c-2.7,2.4-5.9,4.3-9.7,5.5s-7.9,1.8-12.4,1.8
			c-10.8,0-18.9-2.4-24.1-7.1c-5.2-4.7-7.8-11.6-7.8-20.7v-52.3h17.1v49.3c0,6,1.2,10.4,3.6,13c2.4,2.7,6.2,4.1,11.4,4.1
			c5,0,8.6-1.4,10.8-4.3c2.2-2.9,3.3-7.1,3.3-12.8V204.9z"/>
		<path d="M169.6,206.6c1.9-0.3,4-0.6,6.2-0.8c2.2-0.3,4.4-0.5,6.6-0.6c2.2-0.1,4.4-0.3,6.4-0.3c2.1-0.1,4-0.1,5.8-0.1
			c4.1,0,8.1,0.4,12.1,1.1c4,0.7,7.5,1.9,10.6,3.7c3.1,1.7,5.6,4.1,7.5,7c1.9,2.9,2.8,6.6,2.8,10.9c0,3.2-0.4,6-1.1,8.4
			c-0.7,2.4-1.7,4.4-2.9,6.2s-2.8,3.4-4.6,4.7c-1.8,1.3-3.7,2.5-5.8,3.5l21.1,34.4h-19.8L197,253.7h-10.2v30.8h-17.1V206.6z
			 M195.9,218.4c-1.8,0-3.5,0-5.2,0.1c-1.7,0.1-3,0.2-3.9,0.4v22.8h6.8c4.8,0,8.6-1,11.6-2.9c3-1.9,4.5-5.2,4.5-9.7
			c0-3.4-1.2-6-3.5-7.9C203.8,219.4,200.4,218.4,195.9,218.4z"/>
		<path d="M257.6,238H257l0.8,9.3v37.2h-16.2v-78.8h15l30.2,48.2h0.6l-1.1-9.5v-38.7h16.2v78.8h-15L257.6,238z"/>
		<path d="M317,258.5h13.8v11.1c0.2,0.1,0.5,0.2,0.8,0.2c1.9,0.8,4,1.4,6.3,1.9c2.3,0.5,4.7,0.7,7.3,0.7c4.7,0,8.3-0.8,10.9-2.5
			c2.6-1.7,3.9-4,3.9-6.8c0-2.5-1.1-4.6-3.2-6.2c-2.1-1.6-4.8-3-7.9-4.2c-3.1-1.2-6.5-2.4-10.2-3.6c-3.7-1.2-7.1-2.7-10.2-4.6
			c-3.1-1.8-5.8-4.1-7.9-6.9c-2.1-2.8-3.2-6.4-3.2-10.8c0-3.4,0.7-6.5,2.2-9.3c1.5-2.8,3.5-5.2,6.1-7.3c2.6-2,5.8-3.6,9.4-4.7
			c3.7-1.1,7.8-1.7,12.2-1.7c5.1,0,10.1,0.4,15,1.2c4.9,0.8,8.8,2,11.8,3.4v22.8h-13.8v-12.5c-0.2,0-0.5,0-0.8-0.1
			c-1.8-0.4-3.8-0.8-5.9-1.1c-2.1-0.3-4.2-0.4-6.3-0.4c-4,0-7.1,0.7-9.4,2.1c-2.3,1.4-3.4,3.3-3.4,5.7c0,2.5,1.1,4.5,3.2,6.1
			c2.1,1.6,4.8,3,7.9,4.3c3.1,1.3,6.5,2.6,10.2,3.8c3.7,1.3,7.1,2.8,10.2,4.7c3.1,1.8,5.8,4.1,7.9,6.9c2.1,2.8,3.2,6.3,3.2,10.5
			c0,4-0.8,7.6-2.5,10.6c-1.7,3-4,5.6-7,7.6c-3,2.1-6.5,3.6-10.6,4.6c-4.1,1-8.5,1.5-13.2,1.5c-3.2,0-6.1-0.2-8.8-0.7
			c-2.7-0.4-5.2-1-7.5-1.7c-2.3-0.7-4.3-1.4-6.1-2.1c-1.8-0.7-3.2-1.4-4.2-1.9V258.5z"/>
		<path d="M173.2,298.6h55.5v13.7h-38.4v19.5H226v13.7h-35.6v31.8h-17.1V298.6z"/>
		<path d="M239,338c0-6.4,0.7-12.1,2-17.2c1.3-5.1,3.4-9.4,6.1-12.9s6.2-6.2,10.3-8c4.1-1.9,9-2.8,14.6-2.8c6,0,11.1,1,15.2,3
			c4.2,2,7.6,4.8,10.2,8.4s4.5,7.9,5.8,12.9c1.2,5,1.8,10.5,1.8,16.5c0,12.8-2.7,22.9-8.2,30.1c-5.5,7.2-13.7,10.9-24.8,10.9
			c-6,0-11.1-1-15.3-3c-4.2-2-7.6-4.8-10.2-8.4s-4.5-7.9-5.7-12.9C239.6,349.5,239,344,239,338z M257,338c0,3.8,0.2,7.4,0.6,10.7
			c0.4,3.3,1.1,6.2,2.1,8.6c1,2.4,2.5,4.4,4.5,5.8c2,1.4,4.6,2.1,7.8,2.1c2.9,0,5.3-0.5,7.2-1.6c1.9-1.1,3.5-2.8,4.6-5
			c1.2-2.2,2-5.1,2.4-8.5c0.5-3.4,0.7-7.4,0.7-12.1c0-3.7-0.1-7.2-0.4-10.5c-0.3-3.3-1-6.2-2-8.7c-1-2.5-2.6-4.4-4.6-5.9
			s-4.7-2.2-8-2.2c-5.8,0-9.8,2.3-11.9,6.9C258,322.2,257,329,257,338z"/>
		<path d="M315.6,300c1.9-0.3,4-0.6,6.2-0.8c2.2-0.3,4.4-0.5,6.6-0.6c2.2-0.1,4.4-0.3,6.4-0.3c2.1-0.1,4-0.1,5.8-0.1
			c4.1,0,8.1,0.4,12.1,1.1c4,0.7,7.5,1.9,10.6,3.7c3.1,1.7,5.6,4,7.5,7c1.9,2.9,2.8,6.6,2.8,10.9c0,3.2-0.4,6-1.1,8.4
			c-0.7,2.4-1.7,4.4-2.9,6.2c-1.2,1.8-2.8,3.4-4.6,4.7c-1.8,1.3-3.7,2.5-5.8,3.5l21.1,34.4h-19.8L343,347.1h-10.2v30.8h-17.1V300z
			 M341.9,311.8c-1.8,0-3.5,0-5.2,0.1c-1.7,0.1-3,0.2-3.9,0.5v22.8h6.8c4.8,0,8.6-1,11.6-2.9c3-1.9,4.5-5.2,4.5-9.7
			c0-3.4-1.2-6-3.5-7.9C349.8,312.7,346.4,311.8,341.9,311.8z"/>
	</g>

	<g id="text-uxdesign" fill="#272428">
		<path d="M0,408.3h20.2v9.1h-4.6v20.9c0,1.9,0.2,3.5,0.6,4.8s1,2.4,1.8,3.3c0.8,0.8,1.7,1.5,2.8,1.8c1.1,0.4,2.2,0.6,3.5,0.6
			c1.3,0,2.5-0.2,3.6-0.5c1.1-0.3,2-0.9,2.8-1.7c0.8-0.8,1.4-1.9,1.8-3.2c0.4-1.3,0.6-3,0.6-5.1v-20.9h-5.3v-9.1h20.2v9.1h-4v19.6
			c0,3.5-0.5,6.7-1.5,9.4c-1,2.8-2.4,5.1-4.2,7c-1.8,1.9-3.9,3.4-6.3,4.3c-2.4,1-5,1.5-7.7,1.5c-2.7,0-5.3-0.5-7.6-1.5
			c-2.4-1-4.4-2.4-6.2-4.3c-1.8-1.9-3.1-4.1-4.2-6.8c-1-2.7-1.5-5.7-1.5-9.1v-20.2H0V408.3z"/>
		<path d="M78.6,408.3H100v9.1h-1.7L83,433.6l15.2,15.9h1.6v9.1H78.5v-9.1h5.1l-7.8-8.2l-7.7,8.2h4.5v9.1H51.2v-9.1h2.3l15-15.9
			l-15.4-16.2h-1.8v-9.1h21.3v9.1h-5.1l8.1,8.5l8-8.5h-5.1V408.3z"/>
		<path d="M108.9,433.3c0-0.9,0.2-1.7,0.5-2.5c0.3-0.8,0.8-1.5,1.4-2.1c0.6-0.6,1.3-1.1,2.1-1.4c0.8-0.3,1.6-0.5,2.6-0.5
			c0.9,0,1.7,0.2,2.5,0.5c0.8,0.3,1.5,0.8,2.1,1.4c0.6,0.6,1,1.3,1.4,2.1s0.5,1.6,0.5,2.5c0,0.9-0.2,1.7-0.5,2.5
			c-0.3,0.8-0.8,1.5-1.4,2.1c-0.6,0.6-1.3,1-2,1.4c-0.8,0.3-1.6,0.5-2.5,0.5c-0.9,0-1.8-0.2-2.6-0.5c-0.8-0.3-1.5-0.8-2.1-1.4
			c-0.6-0.6-1-1.3-1.4-2C109.1,435.1,108.9,434.2,108.9,433.3z"/>
		<path d="M130.9,408.3h19.3c2.3,0,4.5,0.3,6.6,0.9c2.1,0.6,4.1,1.4,5.9,2.5c1.8,1.1,3.5,2.4,5,3.9c1.5,1.5,2.8,3.2,3.8,5.1
			s1.9,3.9,2.5,6c0.6,2.1,0.9,4.4,0.9,6.7s-0.3,4.6-0.9,6.7c-0.6,2.1-1.4,4.2-2.5,6c-1.1,1.9-2.3,3.6-3.8,5.1c-1.5,1.5-3.2,2.9-5,4
			s-3.8,1.9-5.9,2.5c-2.1,0.6-4.3,0.9-6.6,0.9h-19.3v-9.1h4v-32.1h-4V408.3z M146,417.5v32.1h4.2c1.8,0,3.5-0.4,5.1-1.3
			c1.6-0.8,3-2,4.2-3.4c1.2-1.4,2.1-3.2,2.8-5.1c0.7-2,1-4.1,1-6.3c0-2.2-0.3-4.3-1-6.3c-0.7-1.9-1.6-3.6-2.8-5.1
			c-1.2-1.4-2.6-2.6-4.2-3.4c-1.6-0.8-3.3-1.2-5.1-1.2H146z"/>
		<path d="M180.7,408.3h40v17.2h-10.8v-7.1H197v9.9h10v9.6h-10v11.7h12.9v-8.9h10.8v18h-40v-9.1h5.3v-31.2h-5.3V408.3z"/>
		<path d="M250.7,422.5c-0.1-0.8-0.4-1.5-0.8-2.2c-0.4-0.7-1-1.3-1.7-1.8c-0.7-0.5-1.4-0.9-2.3-1.2c-0.9-0.3-1.7-0.4-2.7-0.4
			c-0.8,0-1.6,0.1-2.4,0.3c-0.7,0.2-1.4,0.4-1.9,0.8c-0.5,0.4-1,0.8-1.3,1.4c-0.3,0.6-0.5,1.3-0.5,2.1c0,1,0.2,1.8,0.6,2.4
			c0.4,0.6,1,1.1,1.7,1.4c0.7,0.4,1.4,0.7,2.2,0.9c0.8,0.2,1.6,0.5,2.4,0.7l9.1,3.1c1.3,0.4,2.4,1.1,3.6,1.8c1.1,0.8,2.1,1.7,2.9,2.8
			c0.8,1.1,1.4,2.4,1.9,3.8c0.5,1.4,0.7,3.1,0.7,4.8c0,2.4-0.4,4.7-1.3,6.7c-0.9,2-2.2,3.7-3.8,5.2c-1.6,1.4-3.6,2.6-5.8,3.4
			s-4.8,1.2-7.5,1.2c-1.9,0-3.7-0.2-5.5-0.6c-1.7-0.4-3.3-1.1-4.7-1.9c-1.4-0.8-2.7-1.8-3.7-2.9c-1.1-1.1-1.9-2.4-2.5-3.9h-3.4v-10
			h12v2.1c0,1,0.2,1.9,0.5,2.8c0.3,0.8,0.8,1.6,1.4,2.2c0.6,0.6,1.4,1.1,2.4,1.4c1,0.3,2.1,0.5,3.4,0.5c2,0,3.5-0.5,4.5-1.4
			c1-0.9,1.6-2.2,1.6-3.8c0-0.8-0.2-1.5-0.5-2.1s-0.8-1-1.4-1.4c-0.6-0.4-1.2-0.7-1.9-1c-0.7-0.3-1.4-0.5-2.1-0.7l-7.6-2.5
			c-1.4-0.4-2.8-1.1-4.2-1.9c-1.3-0.8-2.5-1.8-3.6-3s-1.8-2.6-2.5-4.2c-0.6-1.6-0.9-3.4-0.9-5.5c0-2.4,0.4-4.5,1.3-6.4
			c0.9-1.9,2.1-3.4,3.7-4.7c1.6-1.3,3.5-2.3,5.7-2.9s4.6-1,7.2-1c2.1,0,4,0.2,5.7,0.7c1.7,0.5,3.3,1.1,4.7,1.9
			c1.4,0.8,2.6,1.7,3.5,2.7s1.7,2.1,2.2,3.2h3.3v10h-12V422.5z"/>
		<path d="M267.9,408.3h21.5v9.1h-5.3v32.1h5.3v9.1h-21.5v-9.1h5.2v-32.1h-5.2V408.3z"/>
		<path d="M331.2,458.7V450c-1.4,2.4-2.7,4.2-4,5.3c-1.3,1.1-2.8,2-4.4,2.7c-1.6,0.7-3.9,1-6.6,1c-1.4,0-2.7-0.2-4.1-0.5
			c-1.4-0.3-2.7-0.7-4-1.3c-1.3-0.5-2.5-1.2-3.8-2s-2.3-1.6-3.3-2.6c-2.5-2.5-4.4-5.4-5.7-8.6c-1.4-3.3-2-6.8-2-10.7
			c0-2.4,0.3-4.7,0.9-6.9c0.6-2.2,1.4-4.3,2.4-6.2c1-1.9,2.3-3.7,3.8-5.3c1.5-1.6,3.1-2.9,4.9-4.1c1.8-1.1,3.7-2,5.8-2.6
			c2.1-0.6,4.3-0.9,6.5-0.9c2.6,0,4.9,0.3,6.8,1s4,2,6.2,3.9h7.4v11.2h-10.3c-1-1.6-2-2.7-2.9-3.4c-0.9-0.7-1.9-1.3-2.9-1.8
			c-1.1-0.5-2.5-0.7-4.4-0.7c-1.9,0-3.6,0.4-5.2,1.3c-1.6,0.8-3,2-4.1,3.4s-2.1,3.1-2.7,5c-0.7,1.9-1,3.9-1,6c0,2,0.3,3.9,0.9,5.7
			c0.6,1.8,1.5,3.4,2.7,4.9c1.2,1.5,2.6,2.6,4.2,3.3c1.6,0.8,3.3,1.2,5.2,1.2c2.3,0,4.4-0.7,6.1-2.1c1.7-1.4,3-3.2,3.8-5.6h-9.6v-9.1
			h23.3v26.9H331.2z"/>
		<path d="M380.9,408.3H400v9.1h-4.1v41.2h-11l-21-32.5v23.4h4.2v9.1h-19.1v-9.1h4.2v-32.1h-4.1v-9.1h15.2l20.8,33v-23.8h-4.3V408.3z"/>
	</g>

</svg>
